<?xml version="1.0" standalone="no"?>
<!DOCTYPE svg PUBLIC "-//W3C//DTD SVG 20010904//EN"
 "http://www.w3.org/TR/2001/REC-SVG-20010904/DTD/svg10.dtd">
<svg version="1.0" xmlns="http://www.w3.org/2000/svg"
 width="180" height="180" viewBox="0 0 622.000000 411.000000"
 preserveAspectRatio="xMidYMid meet">

<g transform="translate(0.000000,411.000000) scale(0.100000,-0.100000)"
fill="white" stroke="none">
<path d="M2925 3386 c-76 -18 -153 -47 -209 -80 -52 -31 -146 -110 -177 -149
-21 -27 -21 -29 -3 -43 64 -50 56 -51 127 19 117 118 294 180 449 158 151 -21
248 -70 347 -177 180 -192 199 -462 48 -693 -74 -113 -154 -197 -347 -364
-256 -221 -464 -432 -528 -536 -55 -91 -94 -184 -111 -269 -6 -29 -11 -145
-11 -257 l0 -205 575 0 575 0 0 55 0 55 -525 0 -525 0 0 143 c1 162 14 236 58
331 68 144 185 277 436 494 353 304 501 474 568 652 30 79 32 93 33 215 0 150
-18 225 -82 335 -47 81 -160 196 -233 237 -138 78 -328 110 -465 79z"/>
<path d="M1340 2070 l0 -1283 123 6 c194 9 332 54 480 156 246 171 391 463
373 754 -8 129 -29 211 -83 327 -105 225 -276 376 -527 464 -16 5 -13 10 20
34 58 42 122 132 150 209 56 159 14 349 -104 468 -87 89 -191 132 -339 142
l-93 6 0 -1283z m232 1146 c110 -45 180 -124 213 -240 56 -195 -81 -402 -287
-434 l-58 -9 0 354 0 353 38 0 c20 0 63 -11 94 -24z m26 -802 c315 -65 552
-310 607 -627 3 -21 6 -82 6 -135 -2 -394 -299 -712 -708 -756 l-63 -7 0 771
0 770 40 0 c23 0 75 -7 118 -16z"/>
<path d="M3900 2069 l0 -1282 123 6 c75 3 153 14 202 27 307 81 543 317 626
625 29 107 32 318 6 415 -48 174 -117 299 -229 412 -93 94 -223 178 -325 208
-24 7 -43 16 -43 20 0 4 15 19 33 33 100 76 166 217 167 353 0 271 -210 463
-507 464 l-53 0 0 -1281z m204 1159 c55 -16 135 -67 170 -109 57 -66 81 -135
80 -229 0 -72 -4 -95 -28 -146 -50 -111 -152 -187 -272 -203 l-54 -8 0 354 0
353 31 0 c18 0 50 -5 73 -12z m48 -812 c139 -27 272 -95 378 -193 157 -145
240 -336 241 -553 0 -137 -21 -234 -76 -345 -123 -247 -342 -395 -637 -430
l-58 -6 0 770 0 771 39 0 c22 0 73 -6 113 -14z"/>
</g>
</svg>
