<svg width="120" height="124" viewBox="0 0 120 124" fill="none" xmlns="http://www.w3.org/2000/svg">
<path d="M33.75 56.1875C39.9632 56.1875 45 50.9828 45 44.5625C45 38.1422 39.9632 32.9375 33.75 32.9375C27.5368 32.9375 22.5 38.1422 22.5 44.5625C22.5 50.9828 27.5368 56.1875 33.75 56.1875Z" fill="#6096BA"/>
<path d="M62.5687 65.4875L69.675 64.4412C70.2937 64.3444 70.8562 64.1119 71.3437 63.7825C72.2062 72.5787 79.3875 79.4375 88.125 79.4375C97.4437 79.4375 105 71.6294 105 62C105 52.3706 97.4437 44.5625 88.125 44.5625C80.3625 44.5625 73.8375 49.9681 71.8688 57.3306C71.1375 56.6138 70.1813 56.1875 69.1125 56.1875H62.1C62.85 52.5063 64.3313 49.0769 66.375 46.1125C67.9313 45.8606 69.4312 45.1437 70.6125 43.9037C71.8125 42.6831 72.5062 41.1331 72.75 39.525C75.9187 37.2 79.6312 35.5725 83.625 34.875C84.9 35.8438 86.4375 36.425 88.125 36.425C89.8125 36.425 91.35 35.8438 92.625 34.875C96.6188 35.5725 100.331 37.2 103.5 39.525C103.744 41.1331 104.438 42.6831 105.638 43.9037C106.819 45.1437 108.319 45.8606 109.875 46.1125C112.125 49.3869 113.7 53.2231 114.375 57.35C113.438 58.6675 112.875 60.2563 112.875 62C112.875 63.7437 113.438 65.3325 114.375 66.65C113.7 70.7769 112.125 74.6131 109.875 77.8875C108.319 78.1394 106.819 78.8563 105.638 80.0963C104.438 81.3169 103.744 82.8669 103.5 84.475C100.331 86.8 96.6188 88.4275 92.625 89.125C91.35 88.1562 89.8125 87.575 88.125 87.575C86.4375 87.575 84.9 88.1562 83.625 89.125C79.6312 88.4275 75.9187 86.8 72.75 84.475C72.5062 82.8669 71.8125 81.3169 70.6125 80.0963C69.4312 78.8563 67.9313 78.1394 66.375 77.8875C64.125 74.6131 62.55 70.7769 61.875 66.65C62.1375 66.2819 62.3625 65.8944 62.5687 65.4875Z" fill="#274C77"/>
<path d="M71.3438 63.7825C72.2063 72.5787 79.3875 79.4375 88.125 79.4375C97.4438 79.4375 105 71.6294 105 62C105 52.3706 97.4438 44.5625 88.125 44.5625C80.3625 44.5625 73.8375 49.9681 71.8688 57.3306L71.9437 57.4081C72.675 58.1637 73.125 59.1906 73.125 60.3337C73.125 61.7675 72.4313 63.0462 71.3438 63.7825Z" fill="#F5DD90"/>
<path d="M69.1124 56.1875H26.1937C21.5249 56.1875 17.1187 58.4156 14.2874 62.2518C10.5187 67.3475 6.35619 76.2406 5.71869 90.9268C5.62494 93.0968 7.31244 94.9181 9.43119 94.9181H9.52494C11.5312 94.9181 13.1249 93.3487 13.3312 91.3143C14.4937 79.8056 20.6437 67.7931 20.6437 67.7931V94.9181H46.8937V71.145C46.8937 69.2075 48.2624 67.58 50.1187 67.3087L69.6937 64.4218C71.6812 64.1312 73.1437 62.3875 73.1437 60.3143C73.1437 58.0281 71.3437 56.1681 69.1312 56.1681L69.1124 56.1875Z" fill="#6096BA"/>
<path d="M88.125 27.125C94.3382 27.125 99.375 21.9203 99.375 15.5C99.375 9.07969 94.3382 3.875 88.125 3.875C81.9118 3.875 76.875 9.07969 76.875 15.5C76.875 21.9203 81.9118 27.125 88.125 27.125Z" fill="#A3CEF1"/>
<path d="M88.125 120.125C94.3382 120.125 99.375 114.92 99.375 108.5C99.375 102.08 94.3382 96.875 88.125 96.875C81.9118 96.875 76.875 102.08 76.875 108.5C76.875 114.92 81.9118 120.125 88.125 120.125Z" fill="#A3CEF1"/>
</svg>
