<?xml version="1.0" standalone="no"?>
<!DOCTYPE svg PUBLIC "-//W3C//DTD SVG 20010904//EN"
 "http://www.w3.org/TR/2001/REC-SVG-20010904/DTD/svg10.dtd">
<svg version="1.0" xmlns="http://www.w3.org/2000/svg"
 width="230" height="230" viewBox="0 0 751.000000 509.000000"
 preserveAspectRatio="xMidYMid meet">

<g transform="translate(0.000000,509.000000) scale(0.100000,-0.100000)"
fill="white" stroke="none">
<path d="M3627 4704 c-3 -11 -42 -138 -86 -284 -118 -392 -121 -404 -112 -413
4 -4 32 -7 62 -5 l53 3 21 68 c12 37 26 71 31 76 5 5 45 6 89 3 l79 -7 16 -80
15 -80 63 -3 c34 -2 62 -2 62 0 -1 28 -130 722 -136 727 -3 3 -38 7 -79 9 -64
4 -74 2 -78 -14z m97 -314 c23 -123 23 -130 -16 -130 -63 0 -80 10 -73 39 19
80 59 191 65 184 4 -4 15 -46 24 -93z"/>
<path d="M2700 4524 c-131 -63 -160 -86 -160 -126 0 -16 58 -146 133 -301 167
-341 145 -325 323 -242 169 79 162 73 139 124 -10 23 -22 44 -27 47 -4 3 -52
-15 -105 -41 -53 -25 -103 -43 -110 -41 -13 5 -213 409 -213 430 0 6 43 33 95
59 l95 47 -25 50 c-14 28 -26 50 -28 50 -1 -1 -54 -25 -117 -56z"/>
<path d="M4545 4449 c-14 -22 -24 -47 -21 -54 2 -7 23 -23 45 -36 23 -12 41
-29 41 -36 0 -7 -70 -122 -156 -255 -86 -133 -158 -247 -161 -254 -4 -11 74
-64 95 -64 9 0 23 21 212 315 56 88 108 166 115 174 11 12 21 9 64 -18 28 -17
53 -31 55 -31 4 0 56 86 56 93 0 2 -28 22 -62 44 -104 67 -232 149 -244 156
-7 4 -23 -10 -39 -34z"/>
<path d="M1991 3989 c-17 -24 -31 -46 -31 -49 0 -4 108 -86 240 -184 132 -97
240 -182 240 -188 0 -22 -82 -120 -95 -114 -8 3 -118 82 -246 176 -127 94
-236 169 -243 167 -13 -5 -71 -86 -65 -91 36 -32 521 -382 540 -389 48 -19 72
-2 150 104 136 187 137 179 -41 310 -314 233 -394 291 -405 295 -7 3 -27 -14
-44 -37z"/>
<path d="M4995 3659 c-159 -109 -291 -204 -293 -211 -4 -19 56 -100 68 -93 17
10 433 296 513 352 l77 54 -30 44 c-17 24 -34 46 -38 48 -4 3 -137 -85 -297
-194z"/>
<path d="M5241 3155 c-144 -29 -274 -58 -287 -64 -44 -20 -47 -51 -18 -195 27
-138 41 -172 77 -185 27 -10 610 101 634 121 32 26 33 55 6 195 -30 158 -45
184 -110 182 -21 -1 -157 -25 -302 -54z m288 -94 c6 -10 12 -45 13 -77 l3 -58
-210 -42 c-249 -51 -271 -53 -278 -21 -9 34 -20 127 -16 127 2 1 99 21 214 44
245 51 261 53 274 27z"/>
<path d="M1568 3089 c-10 -5 -22 -18 -27 -27 -10 -19 -56 -340 -50 -346 5 -5
667 -96 695 -96 19 0 23 9 32 73 42 278 41 299 -11 322 -31 14 -532 85 -593
85 -16 0 -37 -5 -46 -11z m345 -148 c115 -16 211 -31 214 -34 7 -8 -6 -129
-16 -145 -5 -9 -61 -4 -236 19 -127 17 -236 33 -244 35 -11 4 -12 19 -7 71 8
78 18 94 54 87 15 -2 121 -17 235 -33z"/>
<path d="M2745 2400 c-4 -6 37 -10 114 -10 157 -1 1306 -1 1457 0 74 0 113 4
109 10 -9 14 -1671 14 -1680 0z"/>
<path d="M4945 2349 c-10 -28 -13 -54 -9 -59 5 -4 87 -33 182 -65 160 -53 205
-75 150 -75 -76 0 -385 -24 -394 -31 -11 -9 -40 -117 -33 -122 9 -6 665 -217
676 -217 13 0 46 102 35 111 -4 4 -88 33 -187 64 -136 44 -175 60 -160 66 11
4 107 13 214 20 l193 12 15 36 c9 20 16 49 17 65 1 28 -2 30 -89 58 -49 16
-199 65 -333 108 -134 44 -247 80 -252 80 -5 0 -16 -23 -25 -51z"/>
<path d="M2177 2313 c-27 -11 -37 -21 -34 -32 3 -9 19 -56 37 -105 17 -49 29
-94 27 -100 -4 -10 -149 -66 -169 -66 -3 0 -21 41 -39 90 -17 50 -35 90 -39
90 -13 0 -75 -23 -87 -32 -8 -7 -4 -30 18 -89 16 -44 29 -85 29 -92 0 -17
-167 -75 -178 -62 -5 6 -22 48 -37 95 -15 47 -31 88 -34 93 -10 11 -101 -25
-101 -39 0 -16 100 -297 109 -306 4 -5 67 14 141 40 465 168 540 195 540 201
0 3 -25 79 -57 169 -62 175 -59 173 -126 145z"/>
<path d="M2188 1524 c-40 -26 -46 -42 -26 -73 9 -15 9 -23 -1 -35 -20 -24 -39
-19 -56 14 -16 31 -29 37 -40 20 -6 -10 40 -100 51 -100 12 0 82 40 93 54 11
13 10 20 -3 42 -14 20 -15 28 -5 40 18 22 44 17 59 -11 13 -25 30 -29 37 -9 5
15 -40 79 -57 81 -8 1 -32 -9 -52 -23z"/>
<path d="M4893 1510 c-13 -21 -23 -46 -23 -54 0 -15 147 -106 173 -106 17 0
72 90 60 100 -5 4 -29 19 -55 34 l-47 26 -16 -30 c-16 -32 -14 -34 31 -31 11
1 26 -4 33 -12 12 -15 5 -47 -9 -47 -10 0 -130 71 -130 77 0 2 7 17 15 34 15
27 13 49 -3 49 -4 0 -17 -18 -29 -40z"/>
<path d="M2307 1424 c-4 -4 -5 -16 -2 -28 4 -17 -9 -31 -65 -70 -66 -46 -88
-76 -56 -76 7 0 44 22 82 50 61 44 70 48 84 35 12 -11 19 -12 27 -4 8 8 3 23
-20 55 -31 44 -38 50 -50 38z"/>
<path d="M4833 1415 c-6 -18 1 -26 58 -68 l24 -18 -40 7 c-61 11 -98 10 -102
-3 -5 -13 168 -144 179 -136 18 10 6 32 -32 58 -22 15 -38 30 -36 33 3 2 27
-2 54 -8 49 -13 82 -9 82 8 0 5 -26 29 -57 53 -32 23 -73 54 -90 67 -30 22
-33 23 -40 7z"/>
<path d="M2381 1264 c-12 -25 -21 -49 -21 -53 0 -3 -19 -23 -42 -43 -33 -28
-40 -39 -31 -49 9 -9 21 -4 55 23 24 19 66 41 93 48 60 16 70 23 52 38 -9 8
-24 9 -46 2 -32 -9 -33 -9 -26 18 19 72 -5 83 -34 16z"/>
<path d="M4732 1277 c-8 -10 9 -29 73 -84 67 -58 85 -70 94 -59 9 11 -3 26
-56 73 -100 86 -99 85 -111 70z"/>
<path d="M4647 1191 l-42 -40 75 -76 c71 -71 100 -90 100 -63 0 7 -12 24 -27
40 -34 36 -27 42 25 22 39 -16 72 -14 72 3 0 5 -19 15 -42 23 -34 12 -42 20
-43 42 -1 27 -26 63 -57 79 -14 8 -27 1 -61 -30z m77 -33 c8 -14 7 -22 -7 -35
-16 -16 -18 -16 -38 4 -26 26 -19 56 12 51 12 -2 27 -11 33 -20z"/>
<path d="M2511 1056 c-33 -41 -61 -81 -61 -90 0 -20 66 -70 80 -61 8 5 2 17
-16 36 l-27 28 39 47 c21 26 42 52 46 58 5 7 17 5 37 -7 35 -21 41 -21 41 -3
0 14 -55 66 -69 66 -5 0 -36 -33 -70 -74z"/>
<path d="M4565 1120 c-3 -5 19 -41 51 -80 54 -68 64 -100 30 -100 -9 0 -39 28
-67 63 -51 61 -72 76 -83 59 -5 -8 106 -151 129 -164 17 -10 84 42 85 65 0 19
-116 167 -131 167 -4 0 -11 -4 -14 -10z"/>
<path d="M2623 961 c-29 -43 -53 -83 -53 -89 0 -17 67 -64 87 -60 21 4 124
153 117 171 -6 16 -67 57 -85 57 -8 -1 -38 -36 -66 -79z m100 18 c7 -11 -2
-31 -29 -71 -40 -59 -54 -67 -72 -45 -8 10 -1 29 30 75 41 62 53 69 71 41z"/>
<path d="M4418 1009 c-16 -11 -28 -28 -28 -37 0 -19 99 -172 111 -172 22 0 87
53 82 66 -6 17 -13 17 -37 -1 -11 -8 -25 -15 -31 -15 -11 0 -85 103 -85 119 0
5 11 16 25 25 25 16 26 36 2 36 -7 0 -24 -10 -39 -21z"/>
<path d="M2758 871 c-27 -49 -48 -94 -48 -100 0 -25 30 -8 51 29 13 22 25 40
29 40 3 0 3 -25 0 -56 -5 -46 -3 -57 11 -65 14 -7 22 -1 42 34 47 81 78 148
72 157 -12 19 -25 10 -45 -30 -11 -22 -24 -40 -28 -40 -4 0 -5 27 -4 60 3 53
2 60 -15 60 -12 0 -32 -27 -65 -89z"/>
<path d="M4297 938 c-26 -15 -36 -27 -32 -38 14 -34 97 -180 103 -180 4 0 25
10 46 23 55 31 42 52 -20 32 -15 -5 -23 0 -32 20 -11 23 -9 27 13 37 14 6 25
15 25 19 0 16 -20 20 -42 8 -18 -10 -24 -8 -35 7 -19 26 -16 39 13 53 24 11
29 31 8 38 -5 1 -26 -7 -47 -19z"/>
<path d="M4184 881 c-23 -10 -45 -24 -48 -30 -8 -12 26 -95 42 -105 6 -3 23
-1 37 6 24 11 29 10 41 -7 21 -28 18 -34 -21 -51 -19 -8 -35 -18 -35 -24 0
-19 20 -19 64 0 51 22 55 34 28 90 -16 32 -21 35 -62 35 -39 0 -45 3 -48 22
-2 16 5 26 27 38 20 10 28 20 25 30 -4 8 -7 15 -8 15 0 0 -20 -9 -42 -19z"/>
<path d="M2946 883 c-13 -13 -36 -74 -36 -94 0 -10 13 -25 30 -34 33 -17 36
-23 18 -48 -11 -15 -17 -16 -45 -5 -25 10 -35 10 -45 0 -9 -9 -1 -16 36 -33
26 -11 54 -18 61 -15 17 6 47 74 43 95 -2 9 -14 21 -28 28 -14 7 -25 17 -24
23 1 5 2 17 3 26 1 16 23 16 62 0 30 -13 31 22 1 38 -41 20 -68 27 -76 19z"/>
<path d="M3056 758 c-38 -126 -37 -132 5 -147 70 -24 75 -20 109 86 35 114 35
113 12 113 -15 0 -24 -18 -43 -82 -20 -69 -28 -84 -47 -86 -29 -4 -28 12 2
110 21 65 22 77 9 82 -8 3 -16 6 -18 6 -2 0 -15 -37 -29 -82z"/>
<path d="M3980 807 c0 -1 14 -49 30 -107 17 -58 30 -107 30 -109 0 -3 5 0 11
6 14 14 -39 213 -58 213 -7 0 -13 -1 -13 -3z"/>
<path d="M3225 788 c-3 -7 -14 -56 -24 -108 -13 -65 -16 -97 -9 -101 22 -14
91 -20 102 -9 14 14 -9 30 -41 30 -27 0 -28 6 -8 101 9 40 13 79 11 86 -7 17
-25 17 -31 1z"/>
<path d="M3785 771 c-32 -5 -41 -11 -43 -30 -5 -31 16 -183 26 -193 5 -5 33
-5 63 0 52 7 54 9 51 37 -7 85 -11 95 -42 95 -23 0 -30 -5 -30 -20 0 -11 7
-20 16 -20 11 0 14 -8 12 -27 -2 -20 -9 -28 -23 -28 -17 0 -21 10 -29 62 -11
77 -5 93 34 93 23 0 30 4 30 20 0 11 -6 19 -12 19 -7 -1 -31 -5 -53 -8z"/>
<path d="M3350 759 c0 -7 7 -17 16 -24 15 -11 16 -22 6 -96 -7 -52 -7 -88 -1
-94 17 -18 29 11 40 98 10 72 15 87 29 87 33 0 31 27 -2 34 -48 9 -88 7 -88
-5z"/>
<path d="M3500 722 c0 -22 -3 -73 -6 -115 -6 -66 -5 -77 9 -77 23 0 24 4 31
123 7 104 7 107 -13 107 -18 0 -21 -6 -21 -38z"/>
<path d="M3580 646 c0 -109 1 -116 20 -116 18 0 20 7 21 58 l0 57 27 -55 c43
-88 56 -75 60 58 3 106 2 112 -17 112 -17 0 -20 -8 -23 -52 l-3 -53 -25 50
c-14 28 -33 51 -42 53 -16 3 -18 -7 -18 -112z"/>
</g>
</svg>
