<?xml version="1.0" standalone="no"?>
<!DOCTYPE svg PUBLIC "-//W3C//DTD SVG 20010904//EN"
 "http://www.w3.org/TR/2001/REC-SVG-20010904/DTD/svg10.dtd">
<svg version="1.0" xmlns="http://www.w3.org/2000/svg"
 width="230" height="230" viewBox="0 0 601.000000 351.000000"
 preserveAspectRatio="xMidYMid meet">

<g transform="translate(0.000000,351.000000) scale(0.100000,-0.100000)"
fill="white" stroke="none">
<path d="M4405 2041 c-50 -13 -91 -38 -127 -81 -40 -46 -58 -97 -58 -166 0
-118 51 -191 157 -224 147 -45 275 -4 324 104 33 73 31 76 -70 76 -80 0 -89
-2 -94 -20 -7 -27 -50 -42 -82 -30 -31 12 -45 46 -45 111 0 40 5 55 25 74 33
34 62 32 83 -5 17 -30 18 -30 105 -30 87 0 87 0 87 25 0 38 -35 100 -70 125
-60 43 -157 60 -235 41z"/>
<path d="M870 1800 l0 -240 90 0 90 0 0 75 0 75 70 0 70 0 0 65 0 65 -71 0
-70 0 3 33 3 32 83 3 82 3 0 64 0 65 -175 0 -175 0 0 -240z"/>
<path d="M1290 1800 l0 -240 90 0 90 0 0 75 c0 41 4 75 8 75 4 0 24 -34 45
-75 l37 -75 90 0 c49 0 90 2 90 5 0 3 -20 46 -46 96 l-45 91 25 25 c56 56 56
156 0 209 -44 42 -99 54 -253 54 l-131 0 0 -240z m251 83 c10 -27 -7 -48 -43
-57 -27 -6 -28 -5 -28 39 0 46 0 46 31 43 22 -2 34 -10 40 -25z"/>
<path d="M1810 1800 l0 -240 185 0 185 0 0 70 0 70 -95 0 c-88 0 -95 1 -95 20
0 18 7 20 70 20 l70 0 0 60 0 60 -70 0 c-68 0 -70 1 -70 25 0 25 1 25 90 25
l90 0 0 65 0 65 -180 0 -180 0 0 -240z"/>
<path d="M2260 1800 l0 -240 185 0 185 0 0 70 0 70 -95 0 c-88 0 -95 1 -95 20
0 18 7 20 70 20 l70 0 0 60 0 60 -70 0 c-68 0 -70 1 -70 25 0 25 1 25 90 25
l90 0 0 65 0 65 -180 0 -180 0 0 -240z"/>
<path d="M2710 1800 l0 -240 170 0 170 0 0 70 0 70 -80 0 -80 0 0 170 0 170
-90 0 -90 0 0 -240z"/>
<path d="M3200 1908 c-36 -116 -71 -229 -100 -320 l-9 -28 83 0 84 0 6 30 6
31 72 -3 c68 -3 73 -5 78 -28 6 -24 9 -25 103 -28 53 -1 97 -1 97 0 0 2 -33
109 -73 238 l-73 235 -116 3 -117 3 -41 -133z m180 -161 c0 -5 -17 -7 -37 -5
-43 3 -43 4 -16 98 l16 55 18 -70 c10 -38 19 -74 19 -78z"/>
<path d="M3680 1800 l0 -240 80 0 79 0 3 126 3 125 65 -125 65 -126 83 0 82 0
0 240 0 240 -75 0 -74 0 -3 -107 -3 -108 -52 108 -52 107 -101 0 -100 0 0
-240z"/>
<path d="M4790 1800 l0 -240 185 0 185 0 0 70 0 70 -95 0 c-88 0 -95 1 -95 20
0 18 7 20 70 20 l70 0 0 60 0 60 -70 0 c-68 0 -70 1 -70 25 0 25 1 25 90 25
l90 0 0 65 0 65 -180 0 -180 0 0 -240z"/>
</g>
</svg>
