<svg width="120" height="124" viewBox="0 0 120 124" fill="none" xmlns="http://www.w3.org/2000/svg">
<g clip-path="url(#clip0_114_310)">
<path d="M117.61 2.47009H2.39038V121.53H117.61V2.47009Z" fill="#FFAD61"/>
<path d="M97.53 121.53H65.2589V91.6259L81.3945 106.949L97.53 91.6259V121.53Z" fill="#FFE6B8"/>
<path d="M65.2589 2.47009H97.53V32.5287L81.3945 17.1902L65.2589 32.5287V2.47009Z" fill="#FFE6B8"/>
<path d="M2.39039 0C1.07039 0 0 1.10607 0 2.47007V121.53C0 122.894 1.07039 124 2.39039 124H117.61C118.93 124 120 122.894 120 121.53V2.47007C120 1.10607 118.93 0 117.61 0H2.39039ZM95.1394 4.94014V26.9L83.0128 15.3721C82.5553 14.9372 81.975 14.7197 81.3942 14.7197C80.8137 14.7197 80.2334 14.9372 79.7756 15.3721L67.6491 26.9V4.94014H95.1394ZM67.6493 119.06V97.2509L79.7768 108.768C80.6913 109.636 82.0971 109.636 83.0119 108.768L95.1396 97.2509V119.06H67.6493ZM115.219 119.06H99.9204V91.6261C99.9204 90.6459 99.3595 89.7583 98.4912 89.3645C97.6233 88.9705 96.611 89.1444 95.9126 89.8075L81.3945 103.594L66.8766 89.8075C66.1779 89.1444 65.1659 88.9702 64.298 89.3645C63.4294 89.7588 62.8687 90.6459 62.8687 91.6261V119.06H4.78078V4.94014H62.8685V32.5287C62.8685 33.5091 63.4296 34.3969 64.2982 34.7905C65.167 35.1843 66.1791 35.0109 66.8773 34.3463L81.3945 20.5465L95.9114 34.3465C96.3616 34.7745 96.942 34.999 97.5302 34.999C97.8546 34.999 98.1816 34.9309 98.4905 34.7907C99.3593 34.3967 99.9202 33.5093 99.9202 32.5289V4.94014H115.219V119.06L115.219 119.06Z" fill="#4D3D36"/>
<path d="M29.4342 90.4062C28.1142 90.4062 27.0438 91.5123 27.0438 92.8763V94.4103C27.0438 95.7743 28.1142 96.8803 29.4342 96.8803C30.7542 96.8803 31.8246 95.7743 31.8246 94.4103V92.8763C31.8246 91.5123 30.7542 90.4062 29.4342 90.4062Z" fill="#4D3D36"/>
<path d="M31.1246 27.8949C30.1908 26.9305 28.6777 26.9305 27.7437 27.8949L14.3255 41.7604C13.392 42.725 13.392 44.2891 14.3255 45.254C15.2593 46.2183 16.7724 46.2183 17.7064 45.254L27.0439 35.6052V84.7252C27.0439 86.0892 28.1143 87.1953 29.4343 87.1953C30.7543 87.1953 31.8246 86.0892 31.8246 84.7252V35.605L41.1621 45.2537C41.629 45.7359 42.2407 45.9771 42.8525 45.9771C43.4642 45.9771 44.0759 45.7359 44.5428 45.2537C45.4763 44.2891 45.4763 42.725 44.5428 41.7602L31.1246 27.8949Z" fill="#4D3D36"/>
</g>
<defs>
<clipPath id="clip0_114_310">
<rect width="120" height="124" fill="white"/>
</clipPath>
</defs>
</svg>
