<svg width="100" height="100" viewBox="0 0 146 88" fill="none" xmlns="http://www.w3.org/2000/svg">
<path d="M28.1169 14.8737C28.191 15.4604 30.8618 44.8282 30.8618 45.1906C30.8618 45.3114 31.3366 45.3804 32.39 45.3804H33.9034L34.9866 57.5796C35.5949 64.309 36.1142 70.1584 36.1587 70.6071L36.2478 71.4353H44.1264H52.0051L58.2368 58.5631C61.6642 51.4714 64.4833 45.622 64.513 45.5357C64.5427 45.4667 63.9195 45.3631 63.148 45.3459L61.7236 45.2941L68.7713 30.7482C72.6439 22.742 76.012 15.771 76.2642 15.2533L76.7242 14.3216H68.3707H60.0173L58.6226 17.3067C57.8658 18.9286 55.8925 23.1906 54.2604 26.7451C52.6134 30.2996 50.3581 35.1482 49.2453 37.5122L47.2126 41.8086L47.1236 41.0494C47.0791 40.6353 46.6339 34.6996 46.1443 27.8667C45.6547 21.0337 45.2095 15.1843 45.165 14.8737L45.0908 14.3216H36.5593H28.0278L28.1169 14.8737Z" fill="white"/>
<path d="M77.7332 14.5286C77.7332 14.5631 76.3088 21.7584 74.5728 30.5412L71.4421 46.502L73.0297 46.5537C74.4393 46.5882 74.6322 46.64 74.6322 46.8988C74.6173 47.0541 73.5342 52.6275 72.1988 59.2706L69.7952 71.349L77.9409 71.4008C82.4366 71.418 86.1163 71.418 86.146 71.3835C86.1608 71.3663 86.9472 67.5184 87.8671 62.8424C88.787 58.1835 89.5734 54.3529 89.6179 54.3529C89.6624 54.3529 91.0572 58.2008 92.7338 62.8941L95.7755 71.4353H105.464C110.776 71.4353 115.138 71.418 115.138 71.3835C115.138 71.3663 113.017 65.7929 110.42 59.0118L105.702 46.6745L103.995 46.6228L102.289 46.571L101.295 43.8792L100.301 41.1702L101.829 39.3412C102.66 38.3404 107.126 33.0259 111.74 27.5216C116.34 22.0173 120.673 16.8408 121.355 15.9953L122.601 14.4941H113.195H103.788L98.5797 21.0165C95.7161 24.5882 92.8525 28.1945 92.1996 29.0228C91.5616 29.851 91.0126 30.5067 90.9978 30.4722C90.983 30.4549 91.6655 26.9177 92.5112 22.6212C93.3718 18.3247 94.0691 14.7357 94.0691 14.6494C94.0691 14.5114 77.7777 14.4079 77.7332 14.5286Z" fill="white"/>
</svg>
