<svg width="30" height="30" viewBox="0 0 30 30" fill="none" xmlns="http://www.w3.org/2000/svg">
<path d="M16.5619 3.40865C16.9474 3.01067 17.1364 2.4955 17.129 1.98033C17.1215 1.46516 16.9201 0.954872 16.5221 0.566662L16.4923 0.537364C16.0993 0.171129 15.5969 -0.00710673 15.097 0.000217982C14.5971 0.00754269 14.0997 0.200427 13.7166 0.578871C9.3244 4.89068 4.97942 9.2733 0.614531 13.6169C0.597121 13.6291 0.582199 13.6413 0.567277 13.6559C0.181774 14.0539 -0.00724818 14.5739 0.000213165 15.0891C0.00767451 15.6043 0.211619 16.117 0.609557 16.5052L0.676709 16.5687C5.0217 20.8512 9.36171 25.1484 13.7191 29.4236C14.0997 29.7996 14.5971 29.9925 15.097 29.9998C15.5969 30.0071 16.0993 29.8289 16.4923 29.4602L16.5296 29.4236C16.9201 29.0378 17.1215 28.53 17.129 28.0172C17.1364 27.5045 16.9474 26.9869 16.5619 26.5889L4.81775 15.0476L16.5619 3.40865ZM29.4377 3.89696C29.8207 3.50143 30.0072 2.98626 29.9998 2.47353C29.9923 1.95836 29.7909 1.44807 29.3929 1.05986L29.3631 1.03056C28.9726 0.664325 28.4677 0.486091 27.9678 0.490974C27.4679 0.498299 26.968 0.691183 26.5875 1.06963C22.2872 5.2911 17.8453 9.44177 13.4878 13.612C13.4704 13.6242 13.453 13.6388 13.4356 13.6535C13.0501 14.0515 12.8611 14.5715 12.8685 15.0867C12.876 15.6018 13.0799 16.1146 13.4779 16.5028C17.8278 20.6412 22.2002 24.7651 26.5601 28.8986L26.59 28.9304C26.9705 29.3064 27.4679 29.4968 27.9678 29.5041C28.4677 29.5115 28.9701 29.3332 29.3631 28.967L29.4004 28.9304C29.7909 28.5446 29.9923 28.0343 29.9998 27.524C30.0072 27.0113 29.8182 26.4937 29.4327 26.0957L17.6985 15.0501L29.4377 3.89696Z" fill="#393939"/>
</svg>
