<svg width="27" height="19" viewBox="0 0 27 19" fill="none" xmlns="http://www.w3.org/2000/svg">
<path d="M16.238 2.67C17.1246 1.97 18.058 1.38667 19.038 0.919996C20.018 0.45333 20.928 0.219997 21.768 0.219997C23.168 0.219997 24.3113 0.779997 25.198 1.9C26.1313 2.97333 26.598 4.42 26.598 6.24C26.598 8.57333 25.618 10.86 23.658 13.1C21.7446 15.34 19.2946 17.2767 16.308 18.91L13.718 16.81V15.62C15.118 14.6867 16.2613 13.5667 17.148 12.26C18.0346 10.9533 18.478 9.69333 18.478 8.48C18.478 7.54666 18.2446 6.66 17.778 5.82C17.358 4.93333 16.7746 4.21 16.028 3.65L16.238 2.67ZM3.35797 2.67C4.24464 1.97 5.17797 1.38667 6.15797 0.919996C7.13797 0.45333 8.04797 0.219997 8.88797 0.219997C10.288 0.219997 11.4313 0.779997 12.318 1.9C13.2513 2.97333 13.718 4.42 13.718 6.24C13.718 8.57333 12.738 10.86 10.778 13.1C8.86464 15.34 6.41464 17.2767 3.42797 18.91L0.837969 16.81V15.62C2.23797 14.6867 3.3813 13.5667 4.26797 12.26C5.15464 10.9533 5.59797 9.69333 5.59797 8.48C5.59797 7.54666 5.36464 6.66 4.89797 5.82C4.47797 4.93333 3.89464 4.21 3.14797 3.65L3.35797 2.67Z" fill="#1A3EBC"/>
</svg>
