<svg width="27" height="19" viewBox="0 0 27 19" fill="none" xmlns="http://www.w3.org/2000/svg">
<path d="M24.2 16.46C22.1467 18.0933 20.3033 18.91 18.67 18.91C17.27 18.91 16.1033 18.3733 15.17 17.3C14.2833 16.2267 13.84 14.78 13.84 12.96C13.84 10.6267 14.7967 8.34 16.71 6.1C18.67 3.86 21.1433 1.9 24.13 0.219997L26.72 2.32V3.51C25.32 4.44333 24.1767 5.58667 23.29 6.94C22.4033 8.24666 21.96 9.50667 21.96 10.72C21.96 11.6533 22.17 12.54 22.59 13.38C23.0567 14.1733 23.6633 14.8733 24.41 15.48L24.2 16.46ZM11.32 16.46C9.26667 18.0933 7.42333 18.91 5.79 18.91C4.39 18.91 3.22333 18.3733 2.29 17.3C1.40333 16.2267 0.96 14.78 0.96 12.96C0.96 10.6267 1.91667 8.34 3.83 6.1C5.79 3.86 8.26333 1.9 11.25 0.219997L13.84 2.32V3.51C12.44 4.44333 11.2967 5.58667 10.41 6.94C9.52333 8.24666 9.08 9.50667 9.08 10.72C9.08 11.6533 9.29 12.54 9.71 13.38C10.1767 14.1733 10.7833 14.8733 11.53 15.48L11.32 16.46Z" fill="#1A3EBC"/>
</svg>
