<svg width="30" height="30" viewBox="0 0 30 30" fill="none" xmlns="http://www.w3.org/2000/svg">
<path d="M13.4381 26.5914C13.0526 26.9893 12.8636 27.5045 12.871 28.0197C12.8785 28.5348 13.0799 29.0451 13.4779 29.4333L13.5077 29.4626C13.9007 29.8289 14.4031 30.0071 14.903 29.9998C15.4029 29.9925 15.9003 29.7996 16.2834 29.4211C20.6756 25.1093 25.0206 20.7267 29.3855 16.3831C29.4029 16.3709 29.4178 16.3587 29.4327 16.3441C29.8182 15.9461 30.0072 15.4261 29.9998 14.9109C29.9923 14.3957 29.7884 13.883 29.3904 13.4948L29.3233 13.4313C24.9783 9.14878 20.6383 4.85162 16.2809 0.576427C15.9003 0.200426 15.4029 0.00754152 14.903 0.000216812C14.4031 -0.0071079 13.9007 0.171127 13.5077 0.539804L13.4704 0.576427C13.0799 0.962195 12.8785 1.47004 12.871 1.98277C12.8636 2.4955 13.0526 3.01311 13.4381 3.41109L25.1822 14.9524L13.4381 26.5914ZM0.562303 26.103C0.179287 26.4986 -0.00724613 27.0137 0.000215213 27.5265C0.00767656 28.0416 0.209133 28.5519 0.607071 28.9401L0.636916 28.9694C1.02739 29.3357 1.53228 29.5139 2.03219 29.509C2.5321 29.5017 3.03201 29.3088 3.41254 28.9304C7.71276 24.7089 12.1547 20.5582 16.5122 16.388C16.5296 16.3758 16.547 16.3612 16.5644 16.3465C16.9499 15.9485 17.1389 15.4285 17.1315 14.9133C17.124 14.3982 16.9201 13.8854 16.5221 13.4972C12.1722 9.35875 7.79981 5.23494 3.43989 1.10136L3.41005 1.06962C3.02952 0.693623 2.5321 0.50318 2.03219 0.495855C1.53228 0.488531 1.02988 0.666765 0.636916 1.033L0.59961 1.06962C0.209133 1.45539 0.00767656 1.96568 0.000215213 2.47597C-0.00724613 2.9887 0.181775 3.50631 0.567277 3.90429L12.3015 14.9499L0.562303 26.103Z" fill="#393939"/>
</svg>
