<svg width="50" height="50" viewBox="0 0 50 50" fill="none" xmlns="http://www.w3.org/2000/svg">
<path d="M32.95 28.2725C31.155 28.2725 29.7 30.29 29.7 32.77C29.7 35.255 31.155 37.2725 32.95 37.2725C34.745 37.2725 36.2 35.255 36.2 32.77C36.1975 30.29 34.745 28.2725 32.95 28.2725ZM44.265 16.565C44.6375 15.6525 44.6525 10.4675 42.6775 5.5C42.6775 5.5 38.15 5.9975 31.3 10.7C29.8625 10.3 27.43 10.105 25.0025 10.105C22.57 10.105 20.14 10.3 18.7025 10.7C11.85 5.9975 7.3225 5.5 7.3225 5.5C5.35 10.4675 5.37 15.6525 5.7375 16.565C3.4175 19.085 2 22.1125 2 26.2425C2 44.2075 16.9075 44.495 20.6675 44.495L25.0025 44.5L29.3325 44.495C33.0975 44.495 48 44.2075 48 26.2425C48 22.1125 46.585 19.085 44.265 16.565ZM25.07 42.2875H24.93C15.5025 42.2875 8.1575 41.165 8.1575 32C8.1575 29.8025 8.9325 27.7675 10.775 26.0775C13.8425 23.26 19.0375 24.75 24.93 24.75H25.07C30.9625 24.75 36.16 23.26 39.23 26.0775C41.0675 27.7675 41.8425 29.8025 41.8425 32C41.8425 41.165 34.5 42.2875 25.07 42.2875ZM17.0525 28.2725C15.2575 28.2725 13.8025 30.29 13.8025 32.77C13.8025 35.255 15.2575 37.2725 17.0525 37.2725C18.85 37.2725 20.305 35.255 20.305 32.77C20.305 30.29 18.85 28.2725 17.0525 28.2725Z" fill="darkgrey"/>
</svg>
