<svg width="349" height="498" viewBox="0 0 349 498" fill="none" xmlns="http://www.w3.org/2000/svg">
<path fill-rule="evenodd" clip-rule="evenodd" d="M339.806 0.0210546C398.755 1.36545 438.178 58.3856 481.868 97.9826C520.447 132.947 562.156 166.522 578.18 216.062C594.191 265.562 574.572 316.306 569.224 368.056C562.025 437.709 598.211 530.046 541.485 571.102C484.728 612.18 409.842 532.142 339.806 534.099C266.177 536.157 195.587 615.673 129.767 582.607C65.4339 550.288 69.8571 456.911 48.993 388.005C28.6431 320.797 -20.9 249.449 9.76194 186.276C40.5433 122.857 131.564 126.04 192.957 91.3936C244.425 62.3485 280.723 -1.3264 339.806 0.0210546Z" fill="#FE9D0B" fill-opacity="0.65"/>
</svg>
