<svg width="1568" height="929" viewBox="0 0 1568 929" fill="none" xmlns="http://www.w3.org/2000/svg">
<path fill-rule="evenodd" clip-rule="evenodd" d="M843.48 59.3847C980.992 68.7939 1108.28 88.0964 1221.13 137.149C1356.41 195.956 1505.42 257.877 1535.96 360.398C1569.92 474.37 1503.59 594.189 1384.4 685.15C1259.17 780.718 1081.07 853.448 886.807 855.798C698.096 858.08 555.904 770.474 410.595 696.929C250.889 616.099 39.4089 547.057 20.3078 417.245C0.751943 284.342 142.305 152.309 319.145 75.431C470.498 9.63256 663.345 47.0589 843.48 59.3847Z" fill="#FE9D0B"/>
<path fill-rule="evenodd" clip-rule="evenodd" d="M843.48 100.385C980.993 109.794 1108.28 129.096 1221.13 178.149C1356.41 236.956 1505.42 298.877 1535.96 401.398C1569.92 515.37 1503.59 635.189 1384.4 726.15C1259.17 821.717 1081.07 894.448 886.807 896.798C698.096 899.08 555.904 811.474 410.595 737.929C250.889 657.099 39.4089 588.057 20.3078 458.245C0.751942 325.343 142.305 193.309 319.145 116.431C470.498 50.6326 663.345 88.0589 843.48 100.385Z" fill="#FE9D0B" fill-opacity="0.55"/>
</svg>
